<svg xmlns="http://www.w3.org/2000/svg" version="1.1" xmlns:xlink="http://www.w3.org/1999/xlink" xmlns:svgjs="http://svgjs.dev/svgjs" width="1000" height="750" viewBox="0 0 1000 750"><rect width="1000" height="750" fill="#000000"></rect><g transform="matrix(0.834,0,0,0.834,82.49454545454546,115.4193570850203)"><svg viewBox="0 0 396 247" data-background-color="#ff5858" preserveAspectRatio="xMidYMid meet" height="623" width="1000" xmlns="http://www.w3.org/2000/svg" xmlns:xlink="http://www.w3.org/1999/xlink"><g id="tight-bounds" transform="matrix(1,0,0,1,0.2400000000000091,-0.09999999999999432)"><svg viewBox="0 0 395.52 247.2" height="247.2" width="395.52"><g><svg></svg></g><g><svg viewBox="0 0 395.52 247.2" height="247.2" width="395.52"><mask id="b0cdf774-5c19-4bca-a2db-7f77fa519ffe"><rect width="395.52" height="247.2" fill="white"></rect><g transform="matrix(1,0,0,1,87.7354,37.08)" id="clone"><svg viewBox="0 0 220.04919999999998 173.04" height="173.04" width="220.04919999999998"><g><svg viewBox="0 0 220.04919999999998 173.04" height="173.04" width="220.04919999999998"><g><svg viewBox="0 0 220.04919999999998 173.04" height="173.04" width="220.04919999999998"><g><svg viewBox="0 0 220.04919999999998 173.04" height="173.04" width="220.04919999999998"><g id="SvgjsG1058"><svg viewBox="0 0 220.04919999999998 173.04" height="173.04" width="220.04919999999998" id="SvgjsSvg1057"><g><svg viewBox="0 0 220.04919999999998 173.04" height="173.04" width="220.04919999999998"><g transform="matrix(1,0,0,1,0,0)"><svg width="220.04919999999998" viewBox="-2.5999999940395355 -28 39.14999771118164 31" height="173.04" data-palette-color="#ffffff"><path d="M21.45-17.05L21.45-17.05Q21.45-20.7 20.15-25L20.15-25 33.5-25Q33.55-24.25 33.55-22.8L33.55-22.8Q33.55-16.4 31.85-12.25L31.85-12.25Q27.25-10.25 24.48-8.22 21.7-6.2 21.7-4.05 21.7-1.9 23.55 0L23.55 0 11 0Q2.55-10.75 0.4-25L0.4-25 14.05-25Q14.25-15.85 18.75-7.15L18.75-7.15Q21.45-11.65 21.45-17.05Z" opacity="1" transform="matrix(1,0,0,1,0,0)" fill="black" class="wordmark-text-0" id="SvgjsPath1056" stroke-width="5" stroke="black" stroke-linejoin="round"></path></svg></g></svg></g></svg></g></svg></g><g></g></svg></g></svg></g></svg></g></mask><g mask="url(#b0cdf774-5c19-4bca-a2db-7f77fa519ffe)"><g><path xmlns="http://www.w3.org/2000/svg" d="M227.375 93.488v0c0-16.104-2.868-33.641-8.603-52.613v0h88.35c0.221 3.309 0.331 8.162 0.331 14.56v0c0 28.237-3.75 51.51-11.25 69.819v0c-20.295 8.824-36.553 17.714-48.775 26.671-12.265 8.912-18.398 18.111-18.398 27.597 0 9.486 4.081 18.42 12.243 26.803v0h-83.055c-37.281-47.429-60.665-102.579-70.151-165.45v0h90.335c0.882 40.37 11.251 79.747 31.105 118.131v0c11.912-19.854 17.869-41.693 17.868-65.518z" fill="#ffffff" fill-rule="nonzero" stroke="none" stroke-width="1" stroke-linecap="butt" stroke-linejoin="miter" stroke-miterlimit="10" stroke-dasharray="" stroke-dashoffset="0" font-family="none" font-weight="none" font-size="none" text-anchor="none" style="mix-blend-mode: normal" data-fill-palette-color="tertiary"></path></g></g><g transform="matrix(1,0,0,1,87.7354,37.08)"><svg viewBox="0 0 220.04919999999998 173.04" height="173.04" width="220.04919999999998"><g><svg viewBox="0 0 220.04919999999998 173.04" height="173.04" width="220.04919999999998"><g><svg viewBox="0 0 220.04919999999998 173.04" height="173.04" width="220.04919999999998"><g><svg viewBox="0 0 220.04919999999998 173.04" height="173.04" width="220.04919999999998"><g id="textblocktransform"><svg viewBox="0 0 220.04919999999998 173.04" height="173.04" width="220.04919999999998" id="textblock"><g><svg viewBox="0 0 220.04919999999998 173.04" height="173.04" width="220.04919999999998"><g transform="matrix(1,0,0,1,0,0)"><svg width="220.04919999999998" viewBox="-2.5999999940395355 -28 39.14999771118164 31" height="173.04" data-palette-color="#ffffff"><path d="M21.45-17.05L21.45-17.05Q21.45-20.7 20.15-25L20.15-25 33.5-25Q33.55-24.25 33.55-22.8L33.55-22.8Q33.55-16.4 31.85-12.25L31.85-12.25Q27.25-10.25 24.48-8.22 21.7-6.2 21.7-4.05 21.7-1.9 23.55 0L23.55 0 11 0Q2.55-10.75 0.4-25L0.4-25 14.05-25Q14.25-15.85 18.75-7.15L18.75-7.15Q21.45-11.65 21.45-17.05Z" opacity="1" transform="matrix(1,0,0,1,0,0)" fill="#ffffff" class="wordmark-text-0" data-fill-palette-color="primary" id="text-0"></path></svg></g></svg></g></svg></g></svg></g><g></g></svg></g></svg></g></svg></g></svg></g><defs></defs></svg><rect width="395.52" height="247.2" fill="none" stroke="none" visibility="hidden"></rect></g></svg></g></svg>